<svg width="300" height="300" viewBox="0 0 300 300" fill="none" xmlns="http://www.w3.org/2000/svg">
    <path
        d="M80.1289 174.65C80.1289 148.514 82.1051 116.957 105.774 116.957C126.729 116.957 130.182 148.514 130.182 171.936C130.182 195.358 116.871 229.875 103.798 229.875C82.8434 229.875 80.1289 201.033 80.1289 174.65ZM125.984 89.8371C128.698 107.838 113.411 112.767 98.1233 107.838C88.0112 102.417 85.3042 89.8371 90.4796 79.7332C98.1233 69.6218 105.767 69.6218 113.411 72.09C121.054 74.5582 125.984 82.2014 125.984 89.8446V89.8371Z"
        fill="#45C0B4" />
    <path
        d="M137.083 125.832C144.726 115.967 152.124 125.832 162.229 128.301C172.095 128.301 179.738 120.904 202.17 118.435C224.855 115.967 247.047 133.476 242.111 150.977C239.642 166.017 209.813 168.232 199.455 190.915C187.128 218.281 184.66 233.322 169.619 228.147C144.719 220.996 129.678 135.936 137.075 125.832H137.083Z"
        fill="#45C0B4" />
    <path
        d="M149.727 299.434C109.734 299.434 72.134 283.864 43.8561 255.581C15.5708 227.305 0 189.708 0 149.717C0 109.726 15.5708 72.1293 43.8561 43.8533C72.134 15.5697 109.734 0 149.727 0C189.72 0 227.32 15.5697 255.597 43.8533C283.875 72.1293 299.454 109.726 299.454 149.717C299.454 189.708 283.883 227.305 255.597 255.581C227.32 283.857 189.72 299.434 149.727 299.434ZM149.727 15.3982C113.85 15.3982 80.1133 29.3722 54.7437 54.7401C29.3741 80.1081 15.3992 113.842 15.3992 149.717C15.3992 185.592 29.3741 219.326 54.7437 244.694C80.1133 270.062 113.85 284.036 149.727 284.036C185.604 284.036 219.34 270.062 244.71 244.694C270.079 219.326 284.054 185.592 284.054 149.717C284.054 113.842 270.079 80.1081 244.71 54.7401C219.34 29.3722 185.604 15.3982 149.727 15.3982Z"
        fill="#45C0B4" />
</svg>