<svg width="896" height="300" viewBox="0 0 896 300" fill="none" xmlns="http://www.w3.org/2000/svg">
<path d="M342.68 25.4014H358.004V132.667H342.68V25.4014Z" fill="white"></path>
<path d="M464.503 78.4208H479.216V120.253C468.485 129.291 453.623 133.892 438.604 133.892C405.658 133.892 381.444 110.753 381.444 79.0323C381.444 47.3112 405.658 24.1729 438.91 24.1729C455.92 24.1729 470.327 29.84 480.134 40.7194L470.633 50.2193C461.744 41.6366 451.632 37.8038 439.521 37.8038C414.696 37.8038 396.769 55.1184 396.769 79.0248C396.769 102.931 414.696 120.246 439.372 120.246C448.41 120.246 456.845 118.255 464.503 113.348V78.4134V78.4208Z" fill="white"></path>
<path d="M580.205 132.667L557.065 99.723C554.917 99.8796 552.62 100.029 550.323 100.029H523.813V132.667H508.488V25.4014H550.323C578.214 25.4014 595.067 39.5021 595.067 62.7896C595.067 79.3362 586.484 91.2894 571.465 96.6582L596.901 132.667H580.197H580.205ZM579.75 62.7971C579.75 47.4734 569.481 38.7415 549.869 38.7415H523.82V87.0092H549.869C569.481 87.0092 579.75 78.1207 579.75 62.7971Z" fill="white"></path>
<path d="M697.745 119.334V132.667H619.898V25.4014H695.604V38.7341H635.223V71.6781H689.012V84.705H635.223V119.334H697.745Z" fill="white"></path>
<path d="M705.101 118.417L713.99 108C719.814 116.277 727.323 120.721 736.361 120.721C748.465 120.721 754.751 113.369 754.751 98.9624V38.7341H715.981V25.4014H769.926V98.1869C769.926 122.093 758.278 133.89 736.369 133.89C723.647 133.89 712.006 128.372 705.108 118.41L705.101 118.417Z" fill="white"></path>
<path d="M867.225 105.852H810.214L798.417 132.667H782.63L831.206 25.4014H846.374L895.108 132.667H879.015L867.218 105.852H867.225ZM861.863 93.5935L838.723 41.0308L815.584 93.5935H861.863Z" fill="white"></path>
<path d="M437.692 164.473V271.738H417.311L363.828 206.611V271.738H339.309V164.473H359.846L413.173 229.6V164.473H437.692Z" fill="white"></path>
<path d="M453.317 218.106C453.317 186.236 478.143 162.635 512.013 162.635C545.884 162.635 570.709 186.079 570.709 218.106C570.709 250.133 545.728 273.577 512.013 273.577C478.299 273.577 453.317 249.976 453.317 218.106ZM545.571 218.106C545.571 197.727 531.164 183.783 512.013 183.783C492.863 183.783 478.456 197.727 478.456 218.106C478.456 238.486 492.863 252.43 512.013 252.43C531.164 252.43 545.571 238.486 545.571 218.106Z" fill="white"></path>
<path d="M694.987 271.738L674.301 241.859H651.467V271.738H626.642V164.473H673.078C701.736 164.473 719.663 179.334 719.663 203.397C719.663 219.489 711.542 231.285 697.597 237.266L721.654 271.746H694.987V271.738ZM671.691 184.703H651.459V222.091H671.691C686.859 222.091 694.525 215.044 694.525 203.397C694.525 191.75 686.859 184.703 671.691 184.703Z" fill="white"></path>
<path d="M736.212 164.473H761.037V271.738H736.212V164.473Z" fill="white"></path>
<path d="M776.66 218.106C776.66 186.236 801.485 162.635 835.356 162.635C869.227 162.635 894.052 186.079 894.052 218.106C894.052 250.133 869.07 273.577 835.356 273.577C801.642 273.577 776.66 249.976 776.66 218.106ZM868.914 218.106C868.914 197.727 854.506 183.783 835.356 183.783C816.206 183.783 801.799 197.727 801.799 218.106C801.799 238.486 816.206 252.43 835.356 252.43C854.506 252.43 868.914 238.486 868.914 218.106Z" fill="white"></path>
<path d="M80.1289 174.65C80.1289 148.514 82.1051 116.957 105.774 116.957C126.729 116.957 130.182 148.514 130.182 171.936C130.182 195.358 116.871 229.875 103.798 229.875C82.8434 229.875 80.1289 201.033 80.1289 174.65ZM125.984 89.8371C128.698 107.838 113.411 112.767 98.1233 107.838C88.0112 102.417 85.3042 89.8371 90.4796 79.7332C98.1233 69.6218 105.767 69.6218 113.411 72.09C121.054 74.5582 125.984 82.2014 125.984 89.8446V89.8371Z" fill="white"></path>
<path d="M137.083 125.832C144.726 115.967 152.124 125.832 162.229 128.301C172.095 128.301 179.738 120.904 202.17 118.435C224.855 115.967 247.047 133.476 242.111 150.977C239.642 166.017 209.813 168.232 199.455 190.915C187.128 218.281 184.66 233.322 169.619 228.147C144.719 220.996 129.678 135.936 137.075 125.832H137.083Z" fill="white"></path>
<path d="M149.727 299.434C109.734 299.434 72.134 283.864 43.8561 255.581C15.5708 227.305 0 189.708 0 149.717C0 109.726 15.5708 72.1293 43.8561 43.8533C72.134 15.5697 109.734 0 149.727 0C189.72 0 227.32 15.5697 255.597 43.8533C283.875 72.1293 299.454 109.726 299.454 149.717C299.454 189.708 283.883 227.305 255.597 255.581C227.32 283.857 189.72 299.434 149.727 299.434ZM149.727 15.3982C113.85 15.3982 80.1133 29.3722 54.7437 54.7401C29.3741 80.1081 15.3992 113.842 15.3992 149.717C15.3992 185.592 29.3741 219.326 54.7437 244.694C80.1133 270.062 113.85 284.036 149.727 284.036C185.604 284.036 219.34 270.062 244.71 244.694C270.079 219.326 284.054 185.592 284.054 149.717C284.054 113.842 270.079 80.1081 244.71 54.7401C219.34 29.3722 185.604 15.3982 149.727 15.3982Z" fill="white"></path>
</svg>